<?xml version="1.0" encoding="utf-8"?>
<!-- Generator: Adobe Illustrator 19.0.0, SVG Export Plug-In . SVG Version: 6.00 Build 0)  -->
<svg version="1.1" id="Layer_1" xmlns="http://www.w3.org/2000/svg" xmlns:xlink="http://www.w3.org/1999/xlink" x="0px" y="0px"
	 viewBox="0 0 181.1 180.4" style="enable-background:new 0 0 181.1 180.4;" xml:space="preserve">
<style type="text/css">
	.st0{fill:#C2AFD3;stroke:#262262;stroke-width:4;stroke-miterlimit:10;}
	.st1{fill:#C2AFD3;}
	.st2{fill:#EAD0E5;}
	.st3{fill:none;stroke:#262262;stroke-width:4;stroke-miterlimit:10;}
	.st4{fill:#3C2415;}
	.st5{fill:#262262;}
	.st6{fill:none;}
	.st7{fill:#E86058;}
	.st8{fill:#F2F0F0;}
	.st9{fill:#8EC1B3;}
</style>
<g id="XMLID_1327_">
	<path id="XMLID_1328_" class="st0" d="M45,155.9C44.2,156.2,46.2,155.7,45,155.9c-0.6,0.1-1.2,0.2-1.8,0.3c-1.3,0.1-3.4,0-5.2-0.8
		c-8.2-3.3-10.7-14.6-12-22.2c-1.5-9.1-1.9-19.9,3.4-27.9c1.2-1.9,2.7-3.5,4.5-4.8c0.5-0.4,1.2-1.4,1.6-2.6c0.9-2.7-1.5-8.2-6.3-6.3
		c-16.7,6.5-13.4,32-10.5,46.1c2.8,13.4,12.9,31.8,29.6,25.5C53.1,161.4,49.8,154.1,45,155.9L45,155.9z"/>
</g>
<path id="XMLID_1326_" class="st0" d="M103.1,174.1H80.7c-22.6,0-41-18.3-41-41v0c0-22.6,18.3-41,41-41h22.4c22.6,0,41,18.3,41,41v0
	C144.1,155.8,125.7,174.1,103.1,174.1z"/>
<path id="XMLID_1325_" class="st1" d="M40.3,53.3c0,0-2.7-29.2,12.5-49.2c2-2.6,5.8-2.7,7.9-0.3c7.2,8.3,10,17.6,11.1,22.6
	c0.5,2.1-0.3,4.2-2,5.5L41.4,53.3"/>
<path id="XMLID_1324_" class="st2" d="M71.8,26.3c-1.1-4.9-4-14.3-11.1-22.6C58.6,1.4,55,1.4,53,3.8c3.8,3.7,6.5,9.2,4.7,18
	c-2.1,10.5-9.4,23.7-16.9,31.4h0.7l28.4-21.4C71.5,30.6,72.3,28.4,71.8,26.3z"/>
<path id="XMLID_1323_" class="st1" d="M138.7,53.3c0,0,2.7-29.2-12.5-49.2c-2-2.6-5.8-2.7-7.9-0.3c-7.2,8.3-10,17.6-11.1,22.6
	c-0.5,2.1,0.3,4.2,2,5.5l28.4,21.4"/>
<path id="XMLID_1322_" class="st2" d="M107.2,26.3c1.1-4.9,4-14.3,11.1-22.6c2.1-2.4,5.7-2.3,7.8,0.1c-3.8,3.7-6.5,9.2-4.7,18
	c2.1,10.5,9.4,23.7,16.9,31.4h-0.7l-28.4-21.4C107.5,30.6,106.7,28.4,107.2,26.3z"/>
<path id="XMLID_1321_" class="st3" d="M138.7,53.3c0,0,2.7-29.2-12.5-49.2c-2-2.6-5.8-2.7-7.9-0.3c-7.2,8.3-10,17.6-11.1,22.6
	c-0.5,2.1,0.3,4.2,2,5.5l28.4,21.4"/>
<path id="XMLID_1320_" class="st3" d="M40.3,53.3c0,0-2.7-29.2,12.5-49.2c2-2.6,5.8-2.7,7.9-0.3c7.2,8.3,10,17.6,11.1,22.6
	c0.5,2.1-0.3,4.2-2,5.5L41.4,53.3"/>
<path id="XMLID_1319_" class="st0" d="M148.3,59.9c4.9,27-26,44.9-58.1,44.9S28.6,88.4,32.2,59.9C35,37.2,58.2,15,90.3,15
	S144.5,39,148.3,59.9z"/>
<circle id="XMLID_1318_" class="st4" cx="110.6" cy="55.1" r="4.7"/>
<circle id="XMLID_1317_" class="st2" cx="71.4" cy="55.7" r="10.5"/>
<g id="XMLID_1315_">
	<path id="XMLID_1316_" class="st5" d="M104.6,78.2c-0.2,4.1-3.5,8.1-8,6.4c-3-1.1-4.5-3.9-4.7-7c0-0.8-3-0.3-2.9,0.8
		c0.6,11.3,17.9,10.1,18.5-0.6C107.6,76.7,104.7,77.3,104.6,78.2L104.6,78.2z"/>
</g>
<g id="XMLID_1313_">
	<path id="XMLID_1314_" class="st5" d="M89,78.2c-0.2,4-3.3,7.9-7.8,6.4c-3.1-1-4.8-3.9-4.9-7c0-0.9-3-0.3-2.9,0.8
		c0.6,11.3,17.9,10.2,18.5-0.6C92,76.6,89.1,77.2,89,78.2L89,78.2z"/>
</g>
<path id="XMLID_1312_" class="st5" d="M74.8,55.7c-1.9,0-3.4-1.5-3.4-3.4c0-1.4,0.8-2.6,2-3.1c-0.6-0.2-1.3-0.3-2-0.3
	c-3.8,0-6.8,3.1-6.8,6.8s3.1,6.8,6.8,6.8s6.8-3.1,6.8-6.8c0-0.7-0.1-1.4-0.3-2C77.4,54.9,76.2,55.7,74.8,55.7z"/>
<circle id="XMLID_1311_" class="st2" cx="110.6" cy="55.7" r="10.5"/>
<path id="XMLID_1310_" class="st5" d="M114.1,55.7c-1.9,0-3.4-1.5-3.4-3.4c0-1.4,0.8-2.6,2-3.1c-0.6-0.2-1.3-0.3-2-0.3
	c-3.8,0-6.8,3.1-6.8,6.8s3.1,6.8,6.8,6.8s6.8-3.1,6.8-6.8c0-0.7-0.1-1.4-0.3-2C116.6,54.9,115.5,55.7,114.1,55.7z"/>
<path id="XMLID_1309_" class="st5" d="M90.5,72.9c-1.9,0-3.5,1-4.4,2.5c-0.7,1.1,0.1,2.6,1.5,2.6h5.9c1.3,0,2.1-1.4,1.5-2.6
	C94,73.9,92.4,72.9,90.5,72.9z"/>
<g id="XMLID_1302_">
	<g id="XMLID_102_">
		<path id="XMLID_106_" class="st2" d="M127.3,39c1.5,1.6,3.2,3.1,4.6,4.8c0.6,0.9,1.7,1.3,2.7,0.7c0.8-0.5,1.4-1.9,0.7-2.7
			c-1.6-2.1-3.4-3.8-5.2-5.7C128.3,34.3,125.5,37.1,127.3,39L127.3,39z"/>
	</g>
</g>
<g id="XMLID_1295_">
	<g id="XMLID_96_">
		<path id="XMLID_100_" class="st2" d="M111.8,28.7c3.9,1.8,7.6,3.9,11.1,6.5c2.1,1.5,4.1-2,2-3.5c-3.5-2.5-7.2-4.6-11.1-6.5
			C111.5,24.2,109.5,27.7,111.8,28.7L111.8,28.7z"/>
	</g>
</g>
<g id="XMLID_1288_">
	<g id="XMLID_90_">
		<path id="XMLID_94_" class="st2" d="M107.7,26.7c2.6,0,2.6-4,0-4C105.1,22.7,105.1,26.7,107.7,26.7L107.7,26.7z"/>
	</g>
</g>
<g id="XMLID_1281_">
	<g id="XMLID_78_">
		<path id="XMLID_82_" class="st5" d="M150.2,67.3c6.7-6.8,16.7-11.3,25.8-6.8c0.8,0.4,3.5-0.8,2.3-1.4c-10.5-5.1-22.7-0.1-30.5,7.7
			C146.7,68,149.5,68,150.2,67.3L150.2,67.3z"/>
	</g>
</g>
<g id="XMLID_1274_">
	<g id="XMLID_72_">
		<path id="XMLID_76_" class="st5" d="M148.8,74c9.2-4.1,20.6-5,29.7-0.4c0.8,0.4,3.5-0.8,2.3-1.4c-10.2-5.1-23-3.9-33.2,0.7
			C145.8,73.7,147.5,74.6,148.8,74L148.8,74z"/>
	</g>
</g>
<g id="XMLID_1267_">
	<g id="XMLID_66_">
		<path id="XMLID_70_" class="st5" d="M146.6,81.2c7.9-4,18.1-3.7,26.1,0.3c0.8,0.4,3.5-0.8,2.3-1.4c-9.4-4.6-20.8-4.5-30.2,0.3
			C143,81.2,145.6,81.6,146.6,81.2L146.6,81.2z"/>
	</g>
</g>
<g id="XMLID_1260_">
	<g id="XMLID_60_">
		<path id="XMLID_64_" class="st5" d="M31.4,64.2c1.1,0,3.1-1.6,1.1-1.6C31.5,62.6,29.5,64.2,31.4,64.2L31.4,64.2z"/>
	</g>
</g>
<g id="XMLID_1253_">
	<g id="XMLID_54_">
		<path id="XMLID_58_" class="st5" d="M32.3,74.3c1.1,0,3.1-1.6,1.1-1.6C32.3,72.6,30.3,74.3,32.3,74.3L32.3,74.3z"/>
	</g>
</g>
<g id="XMLID_1246_">
	<g id="XMLID_48_">
		<path id="XMLID_52_" class="st5" d="M34.8,81.5c1.1,0,3.1-1.6,1.1-1.6C34.8,79.9,32.8,81.5,34.8,81.5L34.8,81.5z"/>
	</g>
</g>
<g id="XMLID_1239_">
	<g id="XMLID_42_">
		<path id="XMLID_46_" class="st5" d="M33.4,66.7c-7.8-7.9-19.6-12.4-30.1-7.3c-1.8,0.9-0.1,1.8,1.1,1.2c9.2-4.5,19.6,0.5,26.2,7.3
			C31.4,68.6,34.1,67.5,33.4,66.7L33.4,66.7z"/>
	</g>
</g>
<g id="XMLID_1232_">
	<g id="XMLID_36_">
		<path id="XMLID_40_" class="st5" d="M34,73c-10.3-4.6-23-5.5-33.2-0.4c-1.8,0.9-0.1,1.8,1.1,1.2c9.1-4.5,20.6-3.4,29.7,0.7
			C32.5,74.8,35.2,73.5,34,73L34,73z"/>
	</g>
</g>
<g id="XMLID_1225_">
	<g id="XMLID_30_">
		<path id="XMLID_34_" class="st5" d="M36.5,80.3c-9.3-4.7-20.7-4.4-29.9,0.1c-1.8,0.9-0.1,1.8,1.1,1.2c8.2-4.1,18.2-4,26.4,0.1
			C35,82.1,37.7,80.9,36.5,80.3L36.5,80.3z"/>
	</g>
</g>
<g id="XMLID_1223_">
	<path id="XMLID_1224_" class="st5" d="M56.3,179.5L56.3,179.5c-1.1,0-2-0.9-2-2v-46.9c0-1.1,0.9-2,2-2h0c1.1,0,2,0.9,2,2v46.9
		C58.3,178.6,57.5,179.5,56.3,179.5z"/>
</g>
<g id="XMLID_1221_">
	<path id="XMLID_1222_" class="st5" d="M127.5,179.5L127.5,179.5c-1.1,0-2-0.9-2-2v-46.9c0-1.1,0.9-2,2-2l0,0c1.1,0,2,0.9,2,2v46.9
		C129.5,178.6,128.6,179.5,127.5,179.5z"/>
</g>
<g id="XMLID_1219_">
	<path id="XMLID_1220_" class="st5" d="M73.5,179.5L73.5,179.5c-1.1,0-2-0.9-2-2v-11.4c0-1.1,0.9-2,2-2l0,0c1.1,0,2,0.9,2,2v11.4
		C75.5,178.6,74.6,179.5,73.5,179.5z"/>
</g>
<g id="XMLID_1217_">
	<path id="XMLID_1218_" class="st5" d="M110.4,179.5L110.4,179.5c-1.1,0-2-0.9-2-2v-11.4c0-1.1,0.9-2,2-2l0,0c1.1,0,2,0.9,2,2v11.4
		C112.4,178.6,111.5,179.5,110.4,179.5z"/>
</g>
<rect id="XMLID_1216_" x="58.3" y="162.6" class="st1" width="13.1" height="13.8"/>
<rect id="XMLID_1215_" x="112.4" y="162.6" class="st1" width="13.1" height="13.8"/>
<g id="XMLID_1213_">
	<path id="XMLID_1214_" class="st5" d="M54.3,178.4L54.3,178.4c0-1.1,1.2-2,2.7-2h15.6c1.5,0,2.7,0.9,2.7,2l0,0c0,1.1-1.2,2-2.7,2
		H57.1C55.6,180.4,54.3,179.5,54.3,178.4z"/>
</g>
<g id="XMLID_1211_">
	<path id="XMLID_1212_" class="st5" d="M108.4,178.4L108.4,178.4c0-1.1,1.2-2,2.7-2h15.6c1.5,0,2.7,0.9,2.7,2l0,0c0,1.1-1.2,2-2.7,2
		h-15.6C109.6,180.4,108.4,179.5,108.4,178.4z"/>
</g>
<g id="XMLID_1204_">
	<g id="XMLID_24_">
		<path id="XMLID_28_" class="st2" d="M133.7,120.1c0.7,1.3,1.4,2.6,2,3.9c0.4,1,1.9,1.2,2.7,0.7c1-0.6,1.2-1.8,0.7-2.7
			c-0.6-1.3-1.3-2.7-2-3.9C135.9,115.8,132.4,117.8,133.7,120.1L133.7,120.1z"/>
	</g>
</g>
<g id="XMLID_1197_">
	<g id="XMLID_18_">
		<path id="XMLID_22_" class="st2" d="M125.3,109.5c2.4,1.6,4.1,3.9,5.6,6.3c1.3,2.2,4.7,0.2,3.5-2c-1.8-3.1-4-5.8-7-7.7
			C125.1,104.7,123.1,108.1,125.3,109.5L125.3,109.5z"/>
	</g>
</g>
<g id="XMLID_1190_">
	<g id="XMLID_12_">
		<path id="XMLID_16_" class="st2" d="M122.9,106.2c2.6,0,2.6-4,0-4C120.4,102.2,120.4,106.2,122.9,106.2L122.9,106.2z"/>
	</g>
</g>
<path id="XMLID_1205_" class="st6" d="M62.5,127.8c0.1,2.6,0.8,5.1,2,7.3c6.2,13.1,25.6,24,27.4,25v0.1c0,0,0,0,0.1,0
	c0,0,0.1,0,0.1,0v-0.1c1.9-1.1,24-13.5,28.5-27.8c0.5-1.4,0.7-2.9,0.8-4.5H62.5z"/>
<path id="XMLID_1206_" class="st7" d="M113.6,131.5c0-0.2,0-0.3,0-0.5c-0.2-6.1-5.3-11.1-11.5-11.1c-4.4,0-8.2,2.4-10.1,6
	c-2-3.6-5.8-6-10.1-6c-6.4,0-11.5,5.2-11.5,11.5c0,0.1,0,0.2,0,0.4h43.3C113.6,131.7,113.6,131.6,113.6,131.5z"/>
<path id="XMLID_1200_" class="st6" d="M70.8,144c8.2,8.8,19.7,15.4,21.1,16.1v0.1c0,0,0,0,0.1,0c0,0,0.1,0,0.1,0v-0.1
	c1.4-0.8,12.9-7.3,21.1-16.1H70.8z"/>
<path id="XMLID_1207_" class="st6" d="M121.4,127.3c0-0.2,0-0.4,0-0.6c-0.3-8.4-7.2-15.1-15.7-15.1c-5.9,0-11.1,3.3-13.8,8.2
	c-2.7-4.9-7.8-8.2-13.8-8.2c-8.7,0-15.7,7-15.7,15.7c0,0.2,0,0.3,0,0.5h58.9C121.4,127.6,121.4,127.5,121.4,127.3z"/>
<path id="XMLID_1208_" class="st8" d="M113,135.1c0.4-1,0.5-2.2,0.6-3.3H70.3c0.1,1.9,0.6,3.7,1.5,5.3c1.1,2.3,2.7,4.5,4.6,6.6h31.1
	C110,141.1,112,138.2,113,135.1z"/>
<path id="XMLID_1201_" class="st6" d="M120.6,132.3c0.5-1.6,0.8-3.2,0.8-5c0-0.2,0-0.4,0-0.6c-0.3-8.4-7.2-15.1-15.7-15.1
	c-5.9,0-11.1,3.3-13.8,8.2c-2.7-4.9-7.8-8.2-13.8-8.2c-8.7,0-15.7,7-15.7,15.7c0,2.8,0.7,5.5,2,7.7c1.5,3.1,3.7,6.2,6.3,8.9h42.4
	C116.5,140.4,119.3,136.4,120.6,132.3z"/>
<path id="XMLID_1337_" class="st9" d="M107.5,143.7H76.4c6,6.5,14.5,11.3,15.5,11.8v0.1c0,0,0,0,0.1,0c0,0,0.1,0,0.1,0v-0.1
	C93,155,101.5,150.2,107.5,143.7z"/>
</svg>
