<?xml version="1.0" encoding="utf-8"?>
<!-- Generator: Adobe Illustrator 19.0.0, SVG Export Plug-In . SVG Version: 6.00 Build 0)  -->
<svg version="1.1" id="Layer_1" xmlns="http://www.w3.org/2000/svg" xmlns:xlink="http://www.w3.org/1999/xlink" x="0px" y="0px"
	 viewBox="0 0 181.1 180.4" style="enable-background:new 0 0 181.1 180.4;" xml:space="preserve">
<style type="text/css">
	.st0{fill:#C2AFD3;stroke:#262262;stroke-width:4;stroke-miterlimit:10;}
	.st1{fill:#C2AFD3;}
	.st2{fill:#EAD0E5;}
	.st3{fill:none;stroke:#262262;stroke-width:4;stroke-miterlimit:10;}
	.st4{fill:#3C2415;}
	.st5{fill:#262262;}
	.st6{fill:#7D7D7D;stroke:#3F403F;stroke-width:4;stroke-miterlimit:10;}
	.st7{fill:#3F403F;}
</style>
<g id="XMLID_1478_">
	<g id="XMLID_1470_">
		<path id="XMLID_1471_" class="st0" d="M38.7,157.6C37.9,157.8,39.9,157.6,38.7,157.6c-0.6,0-1.2,0.1-1.8,0c-1.3-0.1-3.4-0.5-5-1.5
			c-7.6-4.5-8.4-16-8.5-23.8c-0.1-9.2,1.1-19.9,7.6-27.1c1.5-1.7,3.2-3,5.2-4.1c0.6-0.3,1.4-1.2,2-2.4c1.3-2.5-0.3-8.3-5.3-7.2
			c-17.5,3.9-18.1,29.6-17.3,44c0.7,13.7,8,33.4,25.4,29.7C45.9,164.3,43.7,156.6,38.7,157.6L38.7,157.6z"/>
	</g>
	<path id="XMLID_1469_" class="st0" d="M122.5,174.1H61.4c-11.9,0-21.6-9.7-21.6-21.6v-38.7c0-11.9,9.7-21.6,21.6-21.6h61.1
		c11.9,0,21.6,9.7,21.6,21.6v38.7C144.1,164.5,134.4,174.1,122.5,174.1z"/>
	<path id="XMLID_1468_" class="st1" d="M40.3,53.3c0,0-2.7-29.2,12.5-49.2c2-2.6,5.8-2.7,7.9-0.3c7.2,8.3,10,17.6,11.1,22.6
		c0.5,2.1-0.3,4.2-2,5.5L41.4,53.3"/>
	<path id="XMLID_1467_" class="st2" d="M71.8,26.3c-1.1-4.9-4-14.3-11.1-22.6C58.6,1.4,55,1.4,53,3.8c3.8,3.7,6.5,9.2,4.7,18
		c-2.1,10.5-9.4,23.7-16.9,31.4h0.7l28.4-21.4C71.5,30.6,72.3,28.4,71.8,26.3z"/>
	<path id="XMLID_1466_" class="st1" d="M138.7,53.3c0,0,2.7-29.2-12.5-49.2c-2-2.6-5.8-2.7-7.9-0.3c-7.2,8.3-10,17.6-11.1,22.6
		c-0.5,2.1,0.3,4.2,2,5.5l28.4,21.4"/>
	<path id="XMLID_1465_" class="st2" d="M107.2,26.3c1.1-4.9,4-14.3,11.1-22.6c2.1-2.4,5.7-2.3,7.8,0.1c-3.8,3.7-6.5,9.2-4.7,18
		c2.1,10.5,9.4,23.7,16.9,31.4h-0.7l-28.4-21.4C107.5,30.6,106.7,28.4,107.2,26.3z"/>
	<path id="XMLID_1464_" class="st3" d="M138.7,53.3c0,0,2.7-29.2-12.5-49.2c-2-2.6-5.8-2.7-7.9-0.3c-7.2,8.3-10,17.6-11.1,22.6
		c-0.5,2.1,0.3,4.2,2,5.5l28.4,21.4"/>
	<path id="XMLID_1463_" class="st3" d="M40.3,53.3c0,0-2.7-29.2,12.5-49.2c2-2.6,5.8-2.7,7.9-0.3c7.2,8.3,10,17.6,11.1,22.6
		c0.5,2.1-0.3,4.2-2,5.5L41.4,53.3"/>
	<path id="XMLID_1462_" class="st0" d="M148.3,59.9c4.9,27-26,44.9-58.1,44.9S28.6,88.4,32.2,59.9C35,37.2,58.2,15,90.3,15
		S144.5,39,148.3,59.9z"/>
	<circle id="XMLID_1461_" class="st4" cx="110.6" cy="55.1" r="4.7"/>
	<circle id="XMLID_1460_" class="st2" cx="71.4" cy="55.7" r="10.5"/>
	<g id="XMLID_1458_">
		<path id="XMLID_1459_" class="st5" d="M104.6,78.2c-0.2,4.1-3.5,8.1-8,6.4c-3-1.1-4.5-3.9-4.7-7c0-0.8-3-0.3-2.9,0.8
			c0.6,11.3,17.9,10.1,18.5-0.6C107.6,76.7,104.7,77.3,104.6,78.2L104.6,78.2z"/>
	</g>
	<g id="XMLID_1456_">
		<path id="XMLID_1457_" class="st5" d="M89,78.2c-0.2,4-3.3,7.9-7.8,6.4c-3.1-1-4.8-3.9-4.9-7c0-0.9-3-0.3-2.9,0.8
			c0.6,11.3,17.9,10.2,18.5-0.6C92,76.6,89.1,77.2,89,78.2L89,78.2z"/>
	</g>
	<path id="XMLID_1455_" class="st5" d="M74.8,55.7c-1.9,0-3.4-1.5-3.4-3.4c0-1.4,0.8-2.6,2-3.1c-0.6-0.2-1.3-0.3-2-0.3
		c-3.8,0-6.8,3.1-6.8,6.8s3.1,6.8,6.8,6.8s6.8-3.1,6.8-6.8c0-0.7-0.1-1.4-0.3-2C77.4,54.9,76.2,55.7,74.8,55.7z"/>
	<circle id="XMLID_1454_" class="st2" cx="110.6" cy="55.7" r="10.5"/>
	<path id="XMLID_1453_" class="st5" d="M114.1,55.7c-1.9,0-3.4-1.5-3.4-3.4c0-1.4,0.8-2.6,2-3.1c-0.6-0.2-1.3-0.3-2-0.3
		c-3.8,0-6.8,3.1-6.8,6.8s3.1,6.8,6.8,6.8s6.8-3.1,6.8-6.8c0-0.7-0.1-1.4-0.3-2C116.6,54.9,115.5,55.7,114.1,55.7z"/>
	<path id="XMLID_1452_" class="st5" d="M90.5,72.9c-1.9,0-3.5,1-4.4,2.5c-0.7,1.1,0.1,2.6,1.5,2.6h5.9c1.3,0,2.1-1.4,1.5-2.6
		C94,73.9,92.4,72.9,90.5,72.9z"/>
	<g id="XMLID_1445_">
		<g id="XMLID_102_">
			<path id="XMLID_106_" class="st2" d="M127.3,39c1.5,1.6,3.2,3.1,4.6,4.8c0.6,0.9,1.7,1.3,2.7,0.7c0.8-0.5,1.4-1.9,0.7-2.7
				c-1.6-2.1-3.4-3.8-5.2-5.7C128.3,34.3,125.5,37.1,127.3,39L127.3,39z"/>
		</g>
	</g>
	<g id="XMLID_1438_">
		<g id="XMLID_96_">
			<path id="XMLID_100_" class="st2" d="M111.8,28.7c3.9,1.8,7.6,3.9,11.1,6.5c2.1,1.5,4.1-2,2-3.5c-3.5-2.5-7.2-4.6-11.1-6.5
				C111.5,24.2,109.5,27.7,111.8,28.7L111.8,28.7z"/>
		</g>
	</g>
	<g id="XMLID_1431_">
		<g id="XMLID_90_">
			<path id="XMLID_94_" class="st2" d="M107.7,26.7c2.6,0,2.6-4,0-4C105.1,22.7,105.1,26.7,107.7,26.7L107.7,26.7z"/>
		</g>
	</g>
	<g id="XMLID_1424_">
		<g id="XMLID_78_">
			<path id="XMLID_82_" class="st5" d="M150.2,67.3c6.7-6.8,16.7-11.3,25.8-6.8c0.8,0.4,3.5-0.8,2.3-1.4
				c-10.5-5.1-22.7-0.1-30.5,7.7C146.7,68,149.5,68,150.2,67.3L150.2,67.3z"/>
		</g>
	</g>
	<g id="XMLID_1417_">
		<g id="XMLID_72_">
			<path id="XMLID_76_" class="st5" d="M148.8,74c9.2-4.1,20.6-5,29.7-0.4c0.8,0.4,3.5-0.8,2.3-1.4c-10.2-5.1-23-3.9-33.2,0.7
				C145.8,73.7,147.5,74.6,148.8,74L148.8,74z"/>
		</g>
	</g>
	<g id="XMLID_1410_">
		<g id="XMLID_66_">
			<path id="XMLID_70_" class="st5" d="M146.6,81.2c7.9-4,18.1-3.7,26.1,0.3c0.8,0.4,3.5-0.8,2.3-1.4c-9.4-4.6-20.8-4.5-30.2,0.3
				C143,81.2,145.6,81.6,146.6,81.2L146.6,81.2z"/>
		</g>
	</g>
	<g id="XMLID_1403_">
		<g id="XMLID_60_">
			<path id="XMLID_64_" class="st5" d="M31.4,64.2c1.1,0,3.1-1.6,1.1-1.6C31.5,62.6,29.5,64.2,31.4,64.2L31.4,64.2z"/>
		</g>
	</g>
	<g id="XMLID_1396_">
		<g id="XMLID_54_">
			<path id="XMLID_58_" class="st5" d="M32.3,74.3c1.1,0,3.1-1.6,1.1-1.6C32.3,72.6,30.3,74.3,32.3,74.3L32.3,74.3z"/>
		</g>
	</g>
	<g id="XMLID_1389_">
		<g id="XMLID_48_">
			<path id="XMLID_52_" class="st5" d="M34.8,81.5c1.1,0,3.1-1.6,1.1-1.6C34.8,79.9,32.8,81.5,34.8,81.5L34.8,81.5z"/>
		</g>
	</g>
	<g id="XMLID_1382_">
		<g id="XMLID_42_">
			<path id="XMLID_46_" class="st5" d="M33.4,66.7c-7.8-7.9-19.6-12.4-30.1-7.3c-1.8,0.9-0.1,1.8,1.1,1.2c9.2-4.5,19.6,0.5,26.2,7.3
				C31.4,68.6,34.1,67.5,33.4,66.7L33.4,66.7z"/>
		</g>
	</g>
	<g id="XMLID_1375_">
		<g id="XMLID_36_">
			<path id="XMLID_40_" class="st5" d="M34,73c-10.3-4.6-23-5.5-33.2-0.4c-1.8,0.9-0.1,1.8,1.1,1.2c9.1-4.5,20.6-3.4,29.7,0.7
				C32.5,74.8,35.2,73.5,34,73L34,73z"/>
		</g>
	</g>
	<g id="XMLID_1368_">
		<g id="XMLID_30_">
			<path id="XMLID_34_" class="st5" d="M36.5,80.3c-9.3-4.7-20.7-4.4-29.9,0.1c-1.8,0.9-0.1,1.8,1.1,1.2c8.2-4.1,18.2-4,26.4,0.1
				C35,82.1,37.7,80.9,36.5,80.3L36.5,80.3z"/>
		</g>
	</g>
	<g id="XMLID_1366_">
		<path id="XMLID_1367_" class="st5" d="M56.3,179.5L56.3,179.5c-1.1,0-2-0.9-2-2v-46.9c0-1.1,0.9-2,2-2h0c1.1,0,2,0.9,2,2v46.9
			C58.3,178.6,57.5,179.5,56.3,179.5z"/>
	</g>
	<g id="XMLID_1364_">
		<path id="XMLID_1365_" class="st5" d="M127.5,179.5L127.5,179.5c-1.1,0-2-0.9-2-2v-46.9c0-1.1,0.9-2,2-2l0,0c1.1,0,2,0.9,2,2v46.9
			C129.5,178.6,128.6,179.5,127.5,179.5z"/>
	</g>
	<g id="XMLID_1362_">
		<path id="XMLID_1363_" class="st5" d="M73.5,179.5L73.5,179.5c-1.1,0-2-0.9-2-2v-11.4c0-1.1,0.9-2,2-2l0,0c1.1,0,2,0.9,2,2v11.4
			C75.5,178.6,74.6,179.5,73.5,179.5z"/>
	</g>
	<g id="XMLID_1360_">
		<path id="XMLID_1361_" class="st5" d="M110.4,179.5L110.4,179.5c-1.1,0-2-0.9-2-2v-11.4c0-1.1,0.9-2,2-2l0,0c1.1,0,2,0.9,2,2v11.4
			C112.4,178.6,111.5,179.5,110.4,179.5z"/>
	</g>
	<rect id="XMLID_1359_" x="58.3" y="162.6" class="st1" width="13.1" height="13.8"/>
	<rect id="XMLID_1358_" x="112.4" y="162.6" class="st1" width="13.1" height="13.8"/>
	<g id="XMLID_1356_">
		<path id="XMLID_1357_" class="st5" d="M54.3,178.4L54.3,178.4c0-1.1,1.2-2,2.7-2h15.6c1.5,0,2.7,0.9,2.7,2l0,0c0,1.1-1.2,2-2.7,2
			H57.1C55.6,180.4,54.3,179.5,54.3,178.4z"/>
	</g>
	<g id="XMLID_1354_">
		<path id="XMLID_1355_" class="st5" d="M108.4,178.4L108.4,178.4c0-1.1,1.2-2,2.7-2h15.6c1.5,0,2.7,0.9,2.7,2l0,0
			c0,1.1-1.2,2-2.7,2h-15.6C109.6,180.4,108.4,179.5,108.4,178.4z"/>
	</g>
	<g id="XMLID_1347_">
		<g id="XMLID_24_">
			<path id="XMLID_28_" class="st2" d="M136.7,116.6c0.1,1.5,0.2,2.9,0.2,4.4c0,2.6,4,2.6,4,0c0-1.5-0.1-3-0.2-4.4
				c-0.1-1.1-0.8-2-2-2C137.7,114.6,136.6,115.5,136.7,116.6L136.7,116.6z"/>
		</g>
	</g>
	<g id="XMLID_1340_">
		<g id="XMLID_18_">
			<path id="XMLID_22_" class="st2" d="M131.9,103.9c1.9,2.1,3.1,4.8,3.8,7.5c0.7,2.5,4.6,1.4,3.9-1.1c-1-3.4-2.5-6.6-4.9-9.3
				C133,99.1,130.2,102,131.9,103.9L131.9,103.9z"/>
		</g>
	</g>
	<g id="XMLID_1199_">
		<g id="XMLID_12_">
			<path id="XMLID_16_" class="st2" d="M129.5,101.7c2.6,0,2.6-4,0-4C126.9,97.7,126.9,101.7,129.5,101.7L129.5,101.7z"/>
		</g>
	</g>
	<g id="XMLID_1477_">
		<path id="XMLID_1198_" class="st6" d="M157,145.7L157,145.7c-11.9,0-21.6-9.7-21.6-21.6V85.4c0-11.9,9.7-21.6,21.6-21.6h0
			c11.9,0,21.6,9.7,21.6,21.6v38.7C178.6,136,169,145.7,157,145.7z"/>
		<circle id="XMLID_1189_" class="st6" cx="157.2" cy="108.3" r="12.7"/>
		<circle id="XMLID_1472_" class="st6" cx="157.2" cy="108.3" r="6.6"/>
		<rect id="XMLID_1473_" x="150.9" y="25.8" class="st6" width="12.3" height="37.7"/>
		<rect id="XMLID_1475_" x="154.8" y="145.3" class="st7" width="4.6" height="33.1"/>
		
			<rect id="XMLID_1476_" x="144.1" y="145.3" transform="matrix(0.9227 0.3856 -0.3856 0.9227 73.7237 -43.9301)" class="st7" width="4.6" height="33.1"/>
		
			<rect id="XMLID_1474_" x="165.5" y="145.3" transform="matrix(-0.9227 0.3856 -0.3856 -0.9227 385.0161 246.4852)" class="st7" width="4.6" height="33.1"/>
	</g>
</g>
</svg>
