<?xml version="1.0" encoding="utf-8"?>
<!-- Generator: Adobe Illustrator 19.0.0, SVG Export Plug-In . SVG Version: 6.00 Build 0)  -->
<svg version="1.1" id="Layer_1" xmlns="http://www.w3.org/2000/svg" xmlns:xlink="http://www.w3.org/1999/xlink" x="0px" y="0px"
	 viewBox="0 0 181.1 180.4" style="enable-background:new 0 0 181.1 180.4;" xml:space="preserve">
<style type="text/css">
	.st0{fill:#C2AFD3;stroke:#262262;stroke-width:4;stroke-miterlimit:10;}
	.st1{fill:#C2AFD3;}
	.st2{fill:#EAD0E5;}
	.st3{fill:none;stroke:#262262;stroke-width:4;stroke-miterlimit:10;}
	.st4{fill:#3C2415;}
	.st5{fill:#262262;}
	.st6{fill:#F3E8D3;stroke:#A08155;stroke-width:4;stroke-miterlimit:10;}
	.st7{fill:none;stroke:#A08155;stroke-miterlimit:10;}
	.st8{fill:none;stroke:#A08155;stroke-width:4;stroke-miterlimit:10;}
	.st9{fill:none;stroke:#A08155;stroke-width:1.5;stroke-miterlimit:10;}
	.st10{fill:#C7A985;}
	.st11{fill:none;stroke:#7F6546;stroke-miterlimit:10;}
	.st12{fill:none;stroke:#F8B067;stroke-miterlimit:10;}
	.st13{fill:#7F6546;}
	.st14{font-family:'MicrosoftSansSerif';}
	.st15{font-size:21.3071px;}
</style>
<g id="XMLID_4_">
	<g id="XMLID_484_">
		<path id="XMLID_485_" class="st0" d="M38.7,157.6C37.9,157.8,39.9,157.6,38.7,157.6c-0.6,0-1.2,0.1-1.8,0c-1.3-0.1-3.4-0.5-5-1.5
			c-7.6-4.5-8.4-16-8.5-23.8c-0.1-9.2,1.1-19.9,7.6-27.1c1.5-1.7,3.2-3,5.2-4.1c0.6-0.3,1.4-1.2,2-2.4c1.3-2.5-0.3-8.3-5.3-7.2
			c-17.5,3.9-18.1,29.6-17.3,44c0.7,13.7,8,33.4,25.4,29.7C45.9,164.3,43.7,156.6,38.7,157.6L38.7,157.6z"/>
	</g>
	<path id="XMLID_483_" class="st0" d="M122.5,174.1H61.4c-11.9,0-21.6-9.7-21.6-21.6v-38.7c0-11.9,9.7-21.6,21.6-21.6h61.1
		c11.9,0,21.6,9.7,21.6,21.6v38.7C144.1,164.5,134.4,174.1,122.5,174.1z"/>
	<path id="XMLID_482_" class="st1" d="M40.3,53.3c0,0-2.7-29.2,12.5-49.2c2-2.6,5.8-2.7,7.9-0.3c7.2,8.3,10,17.6,11.1,22.6
		c0.5,2.1-0.3,4.2-2,5.5L41.4,53.3"/>
	<path id="XMLID_481_" class="st2" d="M71.8,26.3c-1.1-4.9-4-14.3-11.1-22.6C58.6,1.4,55,1.4,53,3.8c3.8,3.7,6.5,9.2,4.7,18
		c-2.1,10.5-9.4,23.7-16.9,31.4h0.7l28.4-21.4C71.5,30.6,72.3,28.4,71.8,26.3z"/>
	<path id="XMLID_480_" class="st1" d="M138.7,53.3c0,0,2.7-29.2-12.5-49.2c-2-2.6-5.8-2.7-7.9-0.3c-7.2,8.3-10,17.6-11.1,22.6
		c-0.5,2.1,0.3,4.2,2,5.5l28.4,21.4"/>
	<path id="XMLID_479_" class="st2" d="M107.2,26.3c1.1-4.9,4-14.3,11.1-22.6c2.1-2.4,5.7-2.3,7.8,0.1c-3.8,3.7-6.5,9.2-4.7,18
		c2.1,10.5,9.4,23.7,16.9,31.4h-0.7l-28.4-21.4C107.5,30.6,106.7,28.4,107.2,26.3z"/>
	<path id="XMLID_478_" class="st3" d="M138.7,53.3c0,0,2.7-29.2-12.5-49.2c-2-2.6-5.8-2.7-7.9-0.3c-7.2,8.3-10,17.6-11.1,22.6
		c-0.5,2.1,0.3,4.2,2,5.5l28.4,21.4"/>
	<path id="XMLID_477_" class="st3" d="M40.3,53.3c0,0-2.7-29.2,12.5-49.2c2-2.6,5.8-2.7,7.9-0.3c7.2,8.3,10,17.6,11.1,22.6
		c0.5,2.1-0.3,4.2-2,5.5L41.4,53.3"/>
	<path id="XMLID_476_" class="st0" d="M148.3,59.9c4.9,27-26,44.9-58.1,44.9S28.6,88.4,32.2,59.9C35,37.2,58.2,15,90.3,15
		S144.5,39,148.3,59.9z"/>
	<circle id="XMLID_475_" class="st4" cx="110.6" cy="55.1" r="4.7"/>
	<circle id="XMLID_474_" class="st2" cx="71.4" cy="55.7" r="10.5"/>
	<g id="XMLID_472_">
		<path id="XMLID_473_" class="st5" d="M104.6,78.2c-0.2,4.1-3.5,8.1-8,6.4c-3-1.1-4.5-3.9-4.7-7c0-0.8-3-0.3-2.9,0.8
			c0.6,11.3,17.9,10.1,18.5-0.6C107.6,76.7,104.7,77.3,104.6,78.2L104.6,78.2z"/>
	</g>
	<g id="XMLID_470_">
		<path id="XMLID_471_" class="st5" d="M89,78.2c-0.2,4-3.3,7.9-7.8,6.4c-3.1-1-4.8-3.9-4.9-7c0-0.9-3-0.3-2.9,0.8
			c0.6,11.3,17.9,10.2,18.5-0.6C92,76.6,89.1,77.2,89,78.2L89,78.2z"/>
	</g>
	<path id="XMLID_469_" class="st5" d="M74.8,55.7c-1.9,0-3.4-1.5-3.4-3.4c0-1.4,0.8-2.6,2-3.1c-0.6-0.2-1.3-0.3-2-0.3
		c-3.8,0-6.8,3.1-6.8,6.8s3.1,6.8,6.8,6.8s6.8-3.1,6.8-6.8c0-0.7-0.1-1.4-0.3-2C77.4,54.9,76.2,55.7,74.8,55.7z"/>
	<circle id="XMLID_468_" class="st2" cx="110.6" cy="55.7" r="10.5"/>
	<path id="XMLID_467_" class="st5" d="M114.1,55.7c-1.9,0-3.4-1.5-3.4-3.4c0-1.4,0.8-2.6,2-3.1c-0.6-0.2-1.3-0.3-2-0.3
		c-3.8,0-6.8,3.1-6.8,6.8s3.1,6.8,6.8,6.8s6.8-3.1,6.8-6.8c0-0.7-0.1-1.4-0.3-2C116.6,54.9,115.5,55.7,114.1,55.7z"/>
	<path id="XMLID_466_" class="st5" d="M90.5,72.9c-1.9,0-3.5,1-4.4,2.5c-0.7,1.1,0.1,2.6,1.5,2.6h5.9c1.3,0,2.1-1.4,1.5-2.6
		C94,73.9,92.4,72.9,90.5,72.9z"/>
	<g id="XMLID_459_">
		<g id="XMLID_105_">
			<path id="XMLID_109_" class="st2" d="M127.3,39c1.5,1.6,3.2,3.1,4.6,4.8c0.6,0.9,1.7,1.3,2.7,0.7c0.8-0.5,1.4-1.9,0.7-2.7
				c-1.6-2.1-3.4-3.8-5.2-5.7C128.3,34.3,125.5,37.1,127.3,39L127.3,39z"/>
		</g>
	</g>
	<g id="XMLID_452_">
		<g id="XMLID_99_">
			<path id="XMLID_103_" class="st2" d="M111.8,28.7c3.9,1.8,7.6,3.9,11.1,6.5c2.1,1.5,4.1-2,2-3.5c-3.5-2.5-7.2-4.6-11.1-6.5
				C111.5,24.2,109.5,27.7,111.8,28.7L111.8,28.7z"/>
		</g>
	</g>
	<g id="XMLID_445_">
		<g id="XMLID_93_">
			<path id="XMLID_97_" class="st2" d="M107.7,26.7c2.6,0,2.6-4,0-4C105.1,22.7,105.1,26.7,107.7,26.7L107.7,26.7z"/>
		</g>
	</g>
	<g id="XMLID_438_">
		<g id="XMLID_81_">
			<path id="XMLID_85_" class="st5" d="M150.2,67.3c6.7-6.8,16.7-11.3,25.8-6.8c0.8,0.4,3.5-0.8,2.3-1.4
				c-10.5-5.1-22.7-0.1-30.5,7.7C146.7,68,149.5,68,150.2,67.3L150.2,67.3z"/>
		</g>
	</g>
	<g id="XMLID_431_">
		<g id="XMLID_75_">
			<path id="XMLID_79_" class="st5" d="M148.8,74c9.2-4.1,20.6-5,29.7-0.4c0.8,0.4,3.5-0.8,2.3-1.4c-10.2-5.1-23-3.9-33.2,0.7
				C145.8,73.7,147.5,74.6,148.8,74L148.8,74z"/>
		</g>
	</g>
	<g id="XMLID_424_">
		<g id="XMLID_69_">
			<path id="XMLID_73_" class="st5" d="M146.6,81.2c7.9-4,18.1-3.7,26.1,0.3c0.8,0.4,3.5-0.8,2.3-1.4c-9.4-4.6-20.8-4.5-30.2,0.3
				C143,81.2,145.6,81.6,146.6,81.2L146.6,81.2z"/>
		</g>
	</g>
	<g id="XMLID_417_">
		<g id="XMLID_63_">
			<path id="XMLID_67_" class="st5" d="M31.4,64.2c1.1,0,3.1-1.6,1.1-1.6C31.5,62.6,29.5,64.2,31.4,64.2L31.4,64.2z"/>
		</g>
	</g>
	<g id="XMLID_410_">
		<g id="XMLID_57_">
			<path id="XMLID_61_" class="st5" d="M32.3,74.3c1.1,0,3.1-1.6,1.1-1.6C32.3,72.6,30.3,74.3,32.3,74.3L32.3,74.3z"/>
		</g>
	</g>
	<g id="XMLID_403_">
		<g id="XMLID_51_">
			<path id="XMLID_55_" class="st5" d="M34.8,81.5c1.1,0,3.1-1.6,1.1-1.6C34.8,79.9,32.8,81.5,34.8,81.5L34.8,81.5z"/>
		</g>
	</g>
	<g id="XMLID_396_">
		<g id="XMLID_45_">
			<path id="XMLID_49_" class="st5" d="M33.4,66.7c-7.8-7.9-19.6-12.4-30.1-7.3c-1.8,0.9-0.1,1.8,1.1,1.2c9.2-4.5,19.6,0.5,26.2,7.3
				C31.4,68.6,34.1,67.5,33.4,66.7L33.4,66.7z"/>
		</g>
	</g>
	<g id="XMLID_389_">
		<g id="XMLID_39_">
			<path id="XMLID_43_" class="st5" d="M34,73c-10.3-4.6-23-5.5-33.2-0.4c-1.8,0.9-0.1,1.8,1.1,1.2c9.1-4.5,20.6-3.4,29.7,0.7
				C32.5,74.8,35.2,73.5,34,73L34,73z"/>
		</g>
	</g>
	<g id="XMLID_382_">
		<g id="XMLID_33_">
			<path id="XMLID_37_" class="st5" d="M36.5,80.3c-9.3-4.7-20.7-4.4-29.9,0.1c-1.8,0.9-0.1,1.8,1.1,1.2c8.2-4.1,18.2-4,26.4,0.1
				C35,82.1,37.7,80.9,36.5,80.3L36.5,80.3z"/>
		</g>
	</g>
	<g id="XMLID_380_">
		<path id="XMLID_381_" class="st5" d="M56.3,179.5L56.3,179.5c-1.1,0-2-0.9-2-2v-46.9c0-1.1,0.9-2,2-2h0c1.1,0,2,0.9,2,2v46.9
			C58.3,178.6,57.5,179.5,56.3,179.5z"/>
	</g>
	<g id="XMLID_378_">
		<path id="XMLID_379_" class="st5" d="M127.5,179.5L127.5,179.5c-1.1,0-2-0.9-2-2v-46.9c0-1.1,0.9-2,2-2l0,0c1.1,0,2,0.9,2,2v46.9
			C129.5,178.6,128.6,179.5,127.5,179.5z"/>
	</g>
	<g id="XMLID_376_">
		<path id="XMLID_377_" class="st5" d="M73.5,179.5L73.5,179.5c-1.1,0-2-0.9-2-2v-11.4c0-1.1,0.9-2,2-2l0,0c1.1,0,2,0.9,2,2v11.4
			C75.5,178.6,74.6,179.5,73.5,179.5z"/>
	</g>
	<g id="XMLID_374_">
		<path id="XMLID_375_" class="st5" d="M110.4,179.5L110.4,179.5c-1.1,0-2-0.9-2-2v-11.4c0-1.1,0.9-2,2-2l0,0c1.1,0,2,0.9,2,2v11.4
			C112.4,178.6,111.5,179.5,110.4,179.5z"/>
	</g>
	<rect id="XMLID_373_" x="58.3" y="162.6" class="st1" width="13.1" height="13.8"/>
	<rect id="XMLID_372_" x="112.4" y="162.6" class="st1" width="13.1" height="13.8"/>
	<g id="XMLID_370_">
		<path id="XMLID_371_" class="st5" d="M54.3,178.4L54.3,178.4c0-1.1,1.2-2,2.7-2h15.6c1.5,0,2.7,0.9,2.7,2l0,0c0,1.1-1.2,2-2.7,2
			H57.1C55.6,180.4,54.3,179.5,54.3,178.4z"/>
	</g>
	<g id="XMLID_368_">
		<path id="XMLID_369_" class="st5" d="M108.4,178.4L108.4,178.4c0-1.1,1.2-2,2.7-2h15.6c1.5,0,2.7,0.9,2.7,2l0,0c0,1.1-1.2,2-2.7,2
			h-15.6C109.6,180.4,108.4,179.5,108.4,178.4z"/>
	</g>
	<g id="XMLID_361_">
		<g id="XMLID_27_">
			<path id="XMLID_31_" class="st2" d="M136.7,116.6c0.1,1.5,0.2,2.9,0.2,4.4c0,2.6,4,2.6,4,0c0-1.5-0.1-3-0.2-4.4
				c-0.1-1.1-0.8-2-2-2C137.7,114.6,136.6,115.5,136.7,116.6L136.7,116.6z"/>
		</g>
	</g>
	<g id="XMLID_344_">
		<g id="XMLID_21_">
			<path id="XMLID_25_" class="st2" d="M131.9,103.9c1.9,2.1,3.1,4.8,3.8,7.5c0.7,2.5,4.6,1.4,3.9-1.1c-1-3.4-2.5-6.6-4.9-9.3
				C133,99.1,130.2,102,131.9,103.9L131.9,103.9z"/>
		</g>
	</g>
	<g id="XMLID_5_">
		<g id="XMLID_15_">
			<path id="XMLID_19_" class="st2" d="M129.5,101.7c2.6,0,2.6-4,0-4C126.9,97.7,126.9,101.7,129.5,101.7L129.5,101.7z"/>
		</g>
	</g>
</g>
<path id="XMLID_3_" class="st6" d="M138.1,176.4H45.4c-5.5,0-10-4.5-10-10V98c0-5.5,4.5-10,10-10h92.8c5.5,0,10,4.5,10,10v68.4
	C148.2,171.9,143.7,176.4,138.1,176.4z"/>
<line id="XMLID_486_" class="st7" x1="45" y1="93.9" x2="137.7" y2="93.9"/>
<line id="XMLID_489_" class="st7" x1="45.1" y1="123.4" x2="138.8" y2="123.4"/>
<line id="XMLID_490_" class="st8" x1="45" y1="132.1" x2="89" y2="132.1"/>
<line id="XMLID_493_" class="st9" x1="45" y1="140.4" x2="138.7" y2="140.4"/>
<line id="XMLID_495_" class="st9" x1="45" y1="143.3" x2="138.7" y2="143.3"/>
<line id="XMLID_496_" class="st9" x1="45" y1="146.2" x2="138.7" y2="146.2"/>
<line id="XMLID_497_" class="st9" x1="45" y1="149.2" x2="138.7" y2="149.2"/>
<line id="XMLID_498_" class="st9" x1="45" y1="152.1" x2="138.7" y2="152.1"/>
<line id="XMLID_499_" class="st9" x1="45" y1="155" x2="138.7" y2="155"/>
<line id="XMLID_500_" class="st9" x1="45" y1="157.9" x2="138.7" y2="157.9"/>
<line id="XMLID_501_" class="st9" x1="45" y1="160.8" x2="138.7" y2="160.8"/>
<line id="XMLID_502_" class="st9" x1="45" y1="163.7" x2="138.7" y2="163.7"/>
<line id="XMLID_503_" class="st9" x1="45" y1="166.7" x2="138.7" y2="166.7"/>
<rect id="XMLID_487_" x="91.8" y="98" class="st10" width="45.9" height="20.1"/>
<polyline id="XMLID_488_" class="st11" points="91.8,115 105.3,111.3 107.5,112.7 114.7,108 117.8,110 120.8,108 124.8,109.5 
	133.3,102.8 137.7,107.8 "/>
<polyline id="XMLID_491_" class="st12" points="91.9,107.8 106.4,108.9 107.5,105.8 114.7,105.8 124.2,113 133.3,110.7 137.7,111.7 
	"/>
<text id="XMLID_494_" transform="matrix(0.6707 0 0 1 45.6773 116.0629)" class="st13 st14 st15">NEWS</text>
</svg>
