<?xml version="1.0" encoding="utf-8"?>
<!-- Generator: Adobe Illustrator 19.0.0, SVG Export Plug-In . SVG Version: 6.00 Build 0)  -->
<svg version="1.1" id="Layer_1" xmlns="http://www.w3.org/2000/svg" xmlns:xlink="http://www.w3.org/1999/xlink" x="0px" y="0px"
	 viewBox="0 0 221 225" style="enable-background:new 0 0 221 225;" xml:space="preserve">
<style type="text/css">
	.st0{fill:#C2AFD3;stroke:#262262;stroke-width:4;stroke-miterlimit:10;}
	.st1{fill:#C2AFD3;}
	.st2{fill:#EAD0E5;}
	.st3{fill:none;stroke:#262262;stroke-width:4;stroke-miterlimit:10;}
	.st4{fill:#3C2415;}
	.st5{fill:#262262;}
	.st6{fill:#C15966;}
	.st7{fill:#F7E7F1;}
	.st8{fill:#D2C5CE;}
	.st9{fill:#ADC7E8;}
	.st10{fill:#BDDEAC;}
	.st11{fill:#DDD9AC;}
	.st12{fill:none;}
	.st13{opacity:0.2;fill:#FFFFFF;}
	.st14{opacity:0.1;}
</style>
<g id="XMLID_47_">
	<g id="XMLID_288_">
		<path id="XMLID_289_" class="st0" d="M38.7,181.5C37.9,181.7,39.9,181.5,38.7,181.5c-0.6,0-1.2,0.1-1.8,0c-1.3-0.1-3.4-0.5-5-1.5
			c-7.6-4.5-8.4-16-8.5-23.8c-0.1-9.2,1.1-19.9,7.6-27.1c1.5-1.7,3.2-3,5.2-4.1c0.6-0.3,1.4-1.2,2-2.4c1.3-2.5-0.3-8.3-5.3-7.2
			c-17.5,3.9-18.1,29.6-17.3,44c0.7,13.7,8,33.4,25.4,29.7C45.9,188.2,43.7,180.5,38.7,181.5L38.7,181.5z"/>
	</g>
	<path id="XMLID_287_" class="st0" d="M122.5,198.1H61.4c-11.9,0-21.6-9.7-21.6-21.6v-38.7c0-11.9,9.7-21.6,21.6-21.6h61.1
		c11.9,0,21.6,9.7,21.6,21.6v38.7C144.1,188.4,134.4,198.1,122.5,198.1z"/>
	<path id="XMLID_286_" class="st1" d="M40.3,77.2c0,0-2.7-29.2,12.5-49.2c2-2.6,5.8-2.7,7.9-0.3c7.2,8.3,10,17.6,11.1,22.6
		c0.5,2.1-0.3,4.2-2,5.5L41.4,77.2"/>
	<path id="XMLID_285_" class="st2" d="M71.8,50.3c-1.1-4.9-4-14.3-11.1-22.6c-2.1-2.4-5.7-2.3-7.8,0.1c3.8,3.7,6.5,9.2,4.7,18
		c-2.1,10.5-9.4,23.7-16.9,31.4h0.7l28.4-21.4C71.5,54.5,72.3,52.3,71.8,50.3z"/>
	<path id="XMLID_284_" class="st1" d="M138.7,77.2c0,0,2.7-29.2-12.5-49.2c-2-2.6-5.8-2.7-7.9-0.3c-7.2,8.3-10,17.6-11.1,22.6
		c-0.5,2.1,0.3,4.2,2,5.5l28.4,21.4"/>
	<path id="XMLID_283_" class="st2" d="M107.2,50.3c1.1-4.9,4-14.3,11.1-22.6c2.1-2.4,5.7-2.3,7.8,0.1c-3.8,3.7-6.5,9.2-4.7,18
		c2.1,10.5,9.4,23.7,16.9,31.4h-0.7l-28.4-21.4C107.5,54.5,106.7,52.3,107.2,50.3z"/>
	<path id="XMLID_282_" class="st3" d="M138.7,77.2c0,0,2.7-29.2-12.5-49.2c-2-2.6-5.8-2.7-7.9-0.3c-7.2,8.3-10,17.6-11.1,22.6
		c-0.5,2.1,0.3,4.2,2,5.5l28.4,21.4"/>
	<path id="XMLID_281_" class="st3" d="M40.3,77.2c0,0-2.7-29.2,12.5-49.2c2-2.6,5.8-2.7,7.9-0.3c7.2,8.3,10,17.6,11.1,22.6
		c0.5,2.1-0.3,4.2-2,5.5L41.4,77.2"/>
	<path id="XMLID_280_" class="st0" d="M148.3,83.8c4.9,27-26,44.9-58.1,44.9s-61.6-16.4-58.1-44.9c2.8-22.7,26-44.9,58.1-44.9
		S144.5,62.9,148.3,83.8z"/>
	<circle id="XMLID_279_" class="st4" cx="110.6" cy="79" r="4.7"/>
	<circle id="XMLID_278_" class="st2" cx="71.4" cy="79.6" r="10.5"/>
	<g id="XMLID_276_">
		<path id="XMLID_277_" class="st5" d="M104.6,102.1c-0.2,4.1-3.5,8.1-8,6.4c-3-1.1-4.5-3.9-4.7-7c0-0.8-3-0.3-2.9,0.8
			c0.6,11.3,17.9,10.1,18.5-0.6C107.6,100.6,104.7,101.2,104.6,102.1L104.6,102.1z"/>
	</g>
	<g id="XMLID_274_">
		<path id="XMLID_275_" class="st5" d="M89,102.1c-0.2,4-3.3,7.9-7.8,6.4c-3.1-1-4.8-3.9-4.9-7c0-0.9-3-0.3-2.9,0.8
			c0.6,11.3,17.9,10.2,18.5-0.6C92,100.6,89.1,101.2,89,102.1L89,102.1z"/>
	</g>
	<path id="XMLID_273_" class="st5" d="M74.8,79.6c-1.9,0-3.4-1.5-3.4-3.4c0-1.4,0.8-2.6,2-3.1c-0.6-0.2-1.3-0.3-2-0.3
		c-3.8,0-6.8,3.1-6.8,6.8s3.1,6.8,6.8,6.8s6.8-3.1,6.8-6.8c0-0.7-0.1-1.4-0.3-2C77.4,78.8,76.2,79.6,74.8,79.6z"/>
	<circle id="XMLID_272_" class="st2" cx="110.6" cy="79.6" r="10.5"/>
	<path id="XMLID_271_" class="st5" d="M114.1,79.6c-1.9,0-3.4-1.5-3.4-3.4c0-1.4,0.8-2.6,2-3.1c-0.6-0.2-1.3-0.3-2-0.3
		c-3.8,0-6.8,3.1-6.8,6.8s3.1,6.8,6.8,6.8s6.8-3.1,6.8-6.8c0-0.7-0.1-1.4-0.3-2C116.6,78.8,115.5,79.6,114.1,79.6z"/>
	<path id="XMLID_270_" class="st5" d="M90.5,96.8c-1.9,0-3.5,1-4.4,2.5c-0.7,1.1,0.1,2.6,1.5,2.6h5.9c1.3,0,2.1-1.4,1.5-2.6
		C94,97.8,92.4,96.8,90.5,96.8z"/>
	<g id="XMLID_263_">
		<g id="XMLID_134_">
			<path id="XMLID_138_" class="st2" d="M127.3,62.9c1.5,1.6,3.2,3.1,4.6,4.8c0.6,0.9,1.7,1.3,2.7,0.7c0.8-0.5,1.4-1.9,0.7-2.7
				c-1.6-2.1-3.4-3.8-5.2-5.7C128.3,58.2,125.5,61,127.3,62.9L127.3,62.9z"/>
		</g>
	</g>
	<g id="XMLID_256_">
		<g id="XMLID_127_">
			<path id="XMLID_131_" class="st2" d="M111.8,52.7c3.9,1.8,7.6,3.9,11.1,6.5c2.1,1.5,4.1-2,2-3.5c-3.5-2.5-7.2-4.6-11.1-6.5
				C111.5,48.1,109.5,51.6,111.8,52.7L111.8,52.7z"/>
		</g>
	</g>
	<g id="XMLID_249_">
		<g id="XMLID_121_">
			<path id="XMLID_125_" class="st2" d="M107.7,50.6c2.6,0,2.6-4,0-4C105.1,46.6,105.1,50.6,107.7,50.6L107.7,50.6z"/>
		</g>
	</g>
	<g id="XMLID_242_">
		<g id="XMLID_106_">
			<path id="XMLID_111_" class="st5" d="M150.2,91.2c6.7-6.8,16.7-11.3,25.8-6.8c0.8,0.4,3.5-0.8,2.3-1.4
				c-10.5-5.1-22.7-0.1-30.5,7.7C146.7,91.9,149.5,91.9,150.2,91.2L150.2,91.2z"/>
		</g>
	</g>
	<g id="XMLID_235_">
		<g id="XMLID_100_">
			<path id="XMLID_104_" class="st5" d="M148.8,98c9.2-4.1,20.6-5,29.7-0.4c0.8,0.4,3.5-0.8,2.3-1.4c-10.2-5.1-23-3.9-33.2,0.7
				C145.8,97.6,147.5,98.5,148.8,98L148.8,98z"/>
		</g>
	</g>
	<g id="XMLID_228_">
		<g id="XMLID_94_">
			<path id="XMLID_98_" class="st5" d="M146.6,105.1c7.9-4,18.1-3.7,26.1,0.3c0.8,0.4,3.5-0.8,2.3-1.4c-9.4-4.6-20.8-4.5-30.2,0.3
				C143,105.1,145.6,105.6,146.6,105.1L146.6,105.1z"/>
		</g>
	</g>
	<g id="XMLID_221_">
		<g id="XMLID_88_">
			<path id="XMLID_92_" class="st5" d="M31.4,88.1c1.1,0,3.1-1.6,1.1-1.6C31.5,86.5,29.5,88.1,31.4,88.1L31.4,88.1z"/>
		</g>
	</g>
	<g id="XMLID_214_">
		<g id="XMLID_82_">
			<path id="XMLID_86_" class="st5" d="M32.3,98.2c1.1,0,3.1-1.6,1.1-1.6C32.3,96.6,30.3,98.2,32.3,98.2L32.3,98.2z"/>
		</g>
	</g>
	<g id="XMLID_207_">
		<g id="XMLID_76_">
			<path id="XMLID_80_" class="st5" d="M34.8,105.5c1.1,0,3.1-1.6,1.1-1.6C34.8,103.9,32.8,105.5,34.8,105.5L34.8,105.5z"/>
		</g>
	</g>
	<g id="XMLID_200_">
		<g id="XMLID_70_">
			<path id="XMLID_74_" class="st5" d="M33.4,90.7c-7.8-7.9-19.6-12.4-30.1-7.3c-1.8,0.9-0.1,1.8,1.1,1.2c9.2-4.5,19.6,0.5,26.2,7.3
				C31.4,92.5,34.1,91.4,33.4,90.7L33.4,90.7z"/>
		</g>
	</g>
	<g id="XMLID_193_">
		<g id="XMLID_64_">
			<path id="XMLID_68_" class="st5" d="M34,96.9c-10.3-4.6-23-5.5-33.2-0.4c-1.8,0.9-0.1,1.8,1.1,1.2c9.1-4.5,20.6-3.4,29.7,0.7
				C32.5,98.7,35.2,97.5,34,96.9L34,96.9z"/>
		</g>
	</g>
	<g id="XMLID_186_">
		<g id="XMLID_58_">
			<path id="XMLID_62_" class="st5" d="M36.5,104.2c-9.3-4.7-20.7-4.4-29.9,0.1c-1.8,0.9-0.1,1.8,1.1,1.2c8.2-4.1,18.2-4,26.4,0.1
				C35,106,37.7,104.8,36.5,104.2L36.5,104.2z"/>
		</g>
	</g>
	<g id="XMLID_184_">
		<path id="XMLID_185_" class="st5" d="M56.3,203.5L56.3,203.5c-1.1,0-2-0.9-2-2v-46.9c0-1.1,0.9-2,2-2h0c1.1,0,2,0.9,2,2v46.9
			C58.3,202.6,57.5,203.5,56.3,203.5z"/>
	</g>
	<g id="XMLID_182_">
		<path id="XMLID_183_" class="st5" d="M127.5,203.5L127.5,203.5c-1.1,0-2-0.9-2-2v-46.9c0-1.1,0.9-2,2-2l0,0c1.1,0,2,0.9,2,2v46.9
			C129.5,202.6,128.6,203.5,127.5,203.5z"/>
	</g>
	<g id="XMLID_180_">
		<path id="XMLID_181_" class="st5" d="M73.5,203.5L73.5,203.5c-1.1,0-2-0.9-2-2v-11.4c0-1.1,0.9-2,2-2l0,0c1.1,0,2,0.9,2,2v11.4
			C75.5,202.6,74.6,203.5,73.5,203.5z"/>
	</g>
	<g id="XMLID_178_">
		<path id="XMLID_179_" class="st5" d="M110.4,203.5L110.4,203.5c-1.1,0-2-0.9-2-2v-11.4c0-1.1,0.9-2,2-2l0,0c1.1,0,2,0.9,2,2v11.4
			C112.4,202.6,111.5,203.5,110.4,203.5z"/>
	</g>
	<rect id="XMLID_177_" x="58.3" y="186.5" class="st1" width="13.1" height="13.8"/>
	<rect id="XMLID_176_" x="112.4" y="186.5" class="st1" width="13.1" height="13.8"/>
	<g id="XMLID_174_">
		<path id="XMLID_175_" class="st5" d="M54.3,202.3L54.3,202.3c0-1.1,1.2-2,2.7-2h15.6c1.5,0,2.7,0.9,2.7,2l0,0c0,1.1-1.2,2-2.7,2
			H57.1C55.6,204.3,54.3,203.4,54.3,202.3z"/>
	</g>
	<g id="XMLID_172_">
		<path id="XMLID_173_" class="st5" d="M108.4,202.3L108.4,202.3c0-1.1,1.2-2,2.7-2h15.6c1.5,0,2.7,0.9,2.7,2l0,0c0,1.1-1.2,2-2.7,2
			h-15.6C109.6,204.3,108.4,203.4,108.4,202.3z"/>
	</g>
	<g id="XMLID_165_">
		<g id="XMLID_52_">
			<path id="XMLID_56_" class="st2" d="M136.7,140.6c0.1,1.5,0.2,2.9,0.2,4.4c0,2.6,4,2.6,4,0c0-1.5-0.1-3-0.2-4.4
				c-0.1-1.1-0.8-2-2-2C137.7,138.6,136.6,139.5,136.7,140.6L136.7,140.6z"/>
		</g>
	</g>
	<g id="XMLID_148_">
		<g id="XMLID_42_">
			<path id="XMLID_50_" class="st2" d="M131.9,127.8c1.9,2.1,3.1,4.8,3.8,7.5c0.7,2.5,4.6,1.4,3.9-1.1c-1-3.4-2.5-6.6-4.9-9.3
				C133,123.1,130.2,125.9,131.9,127.8L131.9,127.8z"/>
		</g>
	</g>
	<g id="XMLID_132_">
		<g id="XMLID_30_">
			<path id="XMLID_34_" class="st2" d="M129.5,125.7c2.6,0,2.6-4,0-4C126.9,121.7,126.9,125.7,129.5,125.7L129.5,125.7z"/>
		</g>
	</g>
</g>
<path id="XMLID_45_" class="st6" d="M36.2,70.8c0,0-22.9-39.8-3.8-58.6s51.9,30.1,51.9,30.1L36.2,70.8z"/>
<g id="XMLID_44_">
	<g id="XMLID_36_">
		<path id="XMLID_40_" class="st7" d="M85.3,37.1C66.8,47.6,48.5,58.3,30.5,69.6c-4.4,2.7-0.3,9.7,4,6.9
			c18-11.3,36.3-22.1,54.8-32.5C93.8,41.5,89.8,34.6,85.3,37.1L85.3,37.1z"/>
	</g>
</g>
<circle id="XMLID_46_" class="st8" cx="33.7" cy="7.2" r="7.2"/>
<g id="XMLID_107_">
	<rect id="XMLID_113_" x="147.6" y="146.5" class="st9" width="73.3" height="69"/>
	<rect id="XMLID_119_" x="177.5" y="146.5" class="st6" width="13.5" height="69"/>
	<path id="XMLID_151_" class="st6" d="M195.3,146.5c-0.1-5.5-5-10-11-10s-10.9,4.5-11,10H195.3z"/>
	<path id="XMLID_143_" class="st6" d="M192.8,144.9c0,0,23-1.7,25.3-8.7l-5-2.5c0,0-1.5,4.2-20.8,7.7L192.8,144.9z"/>
	<path id="XMLID_152_" class="st6" d="M176.7,144.9c0,0-23-1.7-25.3-8.7l5-2.5c0,0,1.5,4.2,20.8,7.7L176.7,144.9z"/>
	<path id="XMLID_153_" class="st6" d="M175.4,140.7c0,0-17.1-11.4-8.5-22.6c8.6-11.3,17.6-0.3,16.6,19.1l-2.3,1.1
		c0,0-1.9-26.1-9.6-17.9s5.9,18.9,5.9,18.9L175.4,140.7z"/>
	<path id="XMLID_154_" class="st6" d="M192.5,140.7c0,0,17.1-11.4,8.5-22.6c-8.6-11.3-17.6-0.3-16.6,19.1l2.3,1.1
		c0,0,1.9-26.1,9.6-17.9s-5.9,18.9-5.9,18.9L192.5,140.7z"/>
</g>
<g id="XMLID_156_">
	<rect id="XMLID_309_" x="7.4" y="165.7" class="st10" width="55.9" height="52.6"/>
	<rect id="XMLID_308_" x="30.2" y="165.7" class="st6" width="10.3" height="52.6"/>
	<path id="XMLID_307_" class="st6" d="M43.7,165.7c0-4.2-3.8-7.6-8.4-7.6s-8.3,3.4-8.4,7.6H43.7z"/>
	<path id="XMLID_306_" class="st6" d="M41.8,164.5c0,0,17.6-1.3,19.3-6.6l-3.8-1.9c0,0-1.1,3.2-15.8,5.9L41.8,164.5z"/>
	<path id="XMLID_305_" class="st6" d="M29.5,164.5c0,0-17.6-1.3-19.3-6.6l3.8-1.9c0,0,1.1,3.2,15.8,5.9L29.5,164.5z"/>
	<path id="XMLID_157_" class="st6" d="M28.5,161.3c0,0-13.1-8.7-6.5-17.3c6.6-8.6,13.5-0.2,12.7,14.6l-1.7,0.9
		c0,0-1.4-19.9-7.3-13.6c-5.9,6.3,4.5,14.4,4.5,14.4L28.5,161.3z"/>
	<path id="XMLID_310_" class="st6" d="M41.6,161.3c0,0,13.1-8.7,6.5-17.3c-6.6-8.6-13.5-0.2-12.7,14.6l1.7,0.9
		c0,0,1.4-19.9,7.3-13.6c5.9,6.3-4.5,14.4-4.5,14.4L41.6,161.3z"/>
</g>
<g id="XMLID_318_">
	<rect id="XMLID_325_" x="88.3" y="187.1" class="st11" width="40.3" height="37.9"/>
	<rect id="XMLID_324_" x="104.7" y="187.1" class="st6" width="7.4" height="37.9"/>
	<path id="XMLID_323_" class="st6" d="M114.5,187.1c0-3-2.7-5.5-6-5.5c-3.3,0-6,2.5-6,5.5H114.5z"/>
	<path id="XMLID_322_" class="st6" d="M113.1,186.2c0,0,12.7-0.9,13.9-4.8l-2.7-1.4c0,0-0.8,2.3-11.4,4.2L113.1,186.2z"/>
	<path id="XMLID_321_" class="st6" d="M104.2,186.2c0,0-12.7-0.9-13.9-4.8l2.7-1.4c0,0,0.8,2.3,11.4,4.2L104.2,186.2z"/>
	<path id="XMLID_320_" class="st6" d="M103.5,183.9c0,0-9.4-6.3-4.7-12.4c4.7-6.2,9.7-0.1,9.1,10.5l-1.2,0.6c0,0-1-14.3-5.3-9.8
		s3.2,10.4,3.2,10.4L103.5,183.9z"/>
	<path id="XMLID_319_" class="st6" d="M112.9,183.9c0,0,9.4-6.3,4.7-12.4c-4.7-6.2-9.7-0.1-9.1,10.5l1.2,0.6c0,0,1-14.3,5.3-9.8
		s-3.2,10.4-3.2,10.4L112.9,183.9z"/>
</g>
<g id="XMLID_327_">
	<g id="XMLID_24_">
		<path id="XMLID_28_" class="st7" d="M63.6,28.2c2,2.2,3.9,4.5,5.7,6.8c0.7,0.9,2.1,0.7,2.8,0c0.8-0.8,0.7-2,0-2.8
			c-1.8-2.3-3.7-4.6-5.7-6.8C64.7,23.5,61.8,26.3,63.6,28.2L63.6,28.2z"/>
	</g>
</g>
<g id="XMLID_326_">
	<g id="XMLID_18_">
		<path id="XMLID_22_" class="st7" d="M49.9,17.5c3.5,1.4,6.5,3.8,9.3,6.2c1.9,1.7,4.8-1.1,2.8-2.8c-3.3-3-6.9-5.6-11-7.3
			C48.6,12.7,47.5,16.6,49.9,17.5L49.9,17.5z"/>
	</g>
</g>
<g id="XMLID_317_">
	<g id="XMLID_12_">
		<path id="XMLID_16_" class="st7" d="M45.4,16.3c2.6,0,2.6-4,0-4C42.8,12.3,42.8,16.3,45.4,16.3L45.4,16.3z"/>
	</g>
</g>
<path id="XMLID_330_" class="st12" d="M38.8,11.4c-5,0-9.1-4.2-9.7-9.7c-2.4,2-3.3,5.5-1.9,8.5c1.7,3.6,5.9,5.1,9.5,3.5
	c1.2-0.5,2.1-1.4,2.8-2.3C39.3,11.3,39,11.4,38.8,11.4z"/>
<path id="XMLID_331_" class="st7" d="M38.8,11.4c0.3,0,0.5,0,0.8,0c1.4-2,1.8-4.7,0.7-7.2c-1.7-3.6-5.9-5.1-9.5-3.5
	c-0.6,0.3-1.1,0.6-1.6,1C29.7,7.1,33.8,11.4,38.8,11.4z"/>
<rect id="XMLID_328_" x="214.5" y="146.5" class="st13" width="6.4" height="69"/>
<rect id="XMLID_342_" x="56.9" y="165.7" class="st13" width="6.4" height="52.6"/>
<rect id="XMLID_333_" x="124.5" y="187.1" class="st13" width="4" height="37.8"/>
<rect id="XMLID_329_" x="7.4" y="165.7" class="st14" width="6.4" height="52.6"/>
<rect id="XMLID_343_" x="147.6" y="146.5" class="st14" width="6.4" height="69"/>
<rect id="XMLID_336_" x="88.4" y="187.1" class="st14" width="4" height="37.9"/>
</svg>
